HIERARCHY
ROOT Hips
{
  OFFSET 47.1999 84.3849 33.4816
  CHANNELS 6 Xposition Yposition Zposition Zrotation Xrotation Yrotation
  JOINT spine
  {
    OFFSET 0 6.24479 0.359107
    CHANNELS 3 Zrotation Xrotation Yrotation
    JOINT spine1
    {
      OFFSET 0 9.06941 0
      CHANNELS 3 Zrotation Xrotation Yrotation
      JOINT spine2
      {
        OFFSET 0 8.69014 0
        CHANNELS 3 Zrotation Xrotation Yrotation
        JOINT Neck
        {
          OFFSET 0 22.3112 1.06372
          CHANNELS 3 Zrotation Xrotation Yrotation
          JOINT Head
          {
            OFFSET 0 6.74081 0
            CHANNELS 3 Zrotation Xrotation Yrotation
            End Site
            {
              OFFSET 0 16.3165 -5.38097
            }
          }
        }
        JOINT RightShoulder
        {
          OFFSET -3.65916 9.38468 -0.509514
          CHANNELS 3 Zrotation Xrotation Yrotation
          JOINT RightArm
          {
            OFFSET 0 12.3089 0
            CHANNELS 3 Zrotation Xrotation Yrotation
            JOINT RightArmRoll
            {
              OFFSET 0 6.21375 0
              CHANNELS 3 Zrotation Xrotation Yrotation
              JOINT RightForeArm
              {
                OFFSET 0 18.0985 0
                CHANNELS 3 Zrotation Xrotation Yrotation
                JOINT RightForeArmRoll
                {
                  OFFSET 0 6.97279 0
                  CHANNELS 3 Zrotation Xrotation Yrotation
                  JOINT RightHand
                  {
                    OFFSET 0 13.9929 0
                    CHANNELS 3 Zrotation Xrotation Yrotation
                    End Site
                    {
                      OFFSET 0 0 0
                    }
                  }
                }
              }
            }
          }
        }
        JOINT LeftShoulder
        {
          OFFSET 3.65916 9.38468 -0.509514
          CHANNELS 3 Zrotation Xrotation Yrotation
          JOINT LeftArm
          {
            OFFSET 0 12.3089 0
            CHANNELS 3 Zrotation Xrotation Yrotation
            JOINT LeftArmRoll
            {
              OFFSET 0 6.21375 0
              CHANNELS 3 Zrotation Xrotation Yrotation
              JOINT LeftForeArm
              {
                OFFSET 0 18.0985 0
                CHANNELS 3 Zrotation Xrotation Yrotation
                JOINT LeftForeArmRoll
                {
                  OFFSET 0 6.9728 0
                  CHANNELS 3 Zrotation Xrotation Yrotation
                  JOINT LeftHand
                  {
                    OFFSET 0 13.9929 0
                    CHANNELS 3 Zrotation Xrotation Yrotation
                    End Site
                    {
                      OFFSET 0 0 0
                    }
                  }
                }
              }
            }
          }
        }
      }
    }
  }
  JOINT RightUpLeg
  {
    OFFSET -5.53515 -1.015 -0.851454
    CHANNELS 3 Zrotation Xrotation Yrotation
    JOINT RightUpLegRoll
    {
      OFFSET 0 16.4075 0
      CHANNELS 3 Zrotation Xrotation Yrotation
      JOINT RightLeg
      {
        OFFSET 0 -20.3181 0
        CHANNELS 3 Zrotation Xrotation Yrotation
        JOINT RightLegRoll
        {
          OFFSET 0 20.3846 0
          CHANNELS 3 Zrotation Xrotation Yrotation
          JOINT RightFoot
          {
            OFFSET 0 16.9668 0
            CHANNELS 3 Zrotation Xrotation Yrotation
            JOINT RightToeBase
            {
              OFFSET 0 14.1834 0
              CHANNELS 3 Zrotation Xrotation Yrotation
              End Site
              {
                OFFSET 0.0060118 6.86889 -0.791746
              }
            }
          }
        }
      }
    }
  }
  JOINT LeftUpLeg
  {
    OFFSET 5.53515 -1.015 -0.851454
    CHANNELS 3 Zrotation Xrotation Yrotation
    JOINT LeftUpLegRoll
    {
      OFFSET 0 16.4076 0
      CHANNELS 3 Zrotation Xrotation Yrotation
      JOINT LeftLeg
      {
        OFFSET 0 20.3181 0
        CHANNELS 3 Zrotation Xrotation Yrotation
        JOINT LeftLegRoll
        {
          OFFSET 0 20.5731 0
          CHANNELS 3 Zrotation Xrotation Yrotation
          JOINT LeftFoot
          {
            OFFSET 0 16.7783 0
            CHANNELS 3 Zrotation Xrotation Yrotation
            JOINT LeftToeBase
            {
              OFFSET 0 14.1834 0
              CHANNELS 3 Zrotation Xrotation Yrotation
              End Site
              {
                OFFSET -0.0269423 6.86889 -0.791746
              }
            }
          }
        }
      }
    }
  }
}
MOTION
Frames: 9
Frame Time: 0.00208333
48.4588 48.779 -5.28724 0.833179 -10.5247 -1.81979 -0.209704 2.70548 -0.175885 -0.401076 9.4152 -0.332376 -0.398306 11.0603 -0.326343 -3.09049 -2.56529 0.162404 1.74559 10.286 -0.445732 59.4171 -2.90836 -1.79427 131.002 41.9095 -36.9362 3.18055e-015 -3.18055e-015 -0 22.3328 45.5719 -11.1992 -3.03322e-006 1.30726e-005 -3.00002 8.02891 -4.95138 0.69766 -69.5104 -8.4284 5.45327 -117.745 40.1651 19.3929 -3.10274e-005 1.21442e-006 -2.80331e-006 -14.2382 48.4002 8.06254 9.45986e-006 2.6114e-005 3 -8.02904 -4.95155 -0.697716 -152.078 77.3489 -28.8079 -180 1.52568e-005 179.079 -145.576 82.9439 148.036 -1.5033e-006 1.23405e-006 0.879802 -12.1916 62.7254 16.3539 8.136 25.2327 -3.48752 -168.561 78.8256 -9.33101 4.57705e-006 1.05463e-005 -1.30963 107.077 -84.9796 104.439 -1.83853e-006 -1.86183e-007 -1.64042 17.4463 66.9629 -18.7186 -8.12928 25.2331 3.48466 
48.4586 48.7771 -5.28414 0.835457 -10.5153 -1.82093 -0.208589 2.70527 -0.175728 -0.399253 9.41572 -0.331357 -0.39649 11.0608 -0.325352 -3.11898 -2.56496 0.154678 1.78704 10.2791 -0.459043 59.3788 -2.91827 -1.79769 131.049 41.8982 -36.9431 -4.77083e-015 3.18055e-015 -6.36111e-015 22.3206 45.5736 -11.1953 -3.03322e-006 1.30726e-005 -3.00002 8.02891 -4.95138 0.69766 -69.5141 -8.4258 5.45202 -117.741 40.1754 19.4166 -3.10274e-005 1.21442e-006 -2.80331e-006 -14.2557 48.4011 8.0719 9.45986e-006 2.6114e-005 3 -8.02904 -4.95155 -0.697716 -152.055 77.3572 -28.8315 -180 1.52568e-005 179.079 -145.589 82.9423 148.048 -1.5033e-006 1.23405e-006 0.879831 -12.1937 62.7259 16.3547 8.136 25.2327 -3.48752 -168.569 78.8371 -9.32155 4.57705e-006 1.05463e-005 -1.30963 107.094 -84.9773 104.454 -1.83853e-006 -1.86183e-007 -1.64039 17.453 66.9672 -18.7219 -8.12928 25.2331 3.48466 
48.4586 48.7679 -5.28115 0.837761 -10.5062 -1.82203 -0.207482 2.70505 -0.175606 -0.397421 9.41626 -0.330387 -0.394664 11.0613 -0.32441 -3.1481 -2.56435 0.147057 1.82934 10.2719 -0.472374 59.3405 -2.92825 -1.80119 131.097 41.8871 -36.9501 -6.36111e-015 -6.36111e-015 -9.54166e-015 22.3086 45.5747 -11.1914 -3.03322e-006 1.30726e-005 -3.00002 8.02891 -4.95138 0.69766 -69.518 -8.42314 5.45074 -117.737 40.1854 19.44 -3.10274e-005 1.21442e-006 -2.80331e-006 -14.2732 48.4021 8.08128 9.45986e-006 2.6114e-005 3 -8.02904 -4.95155 -0.697716 -152.032 77.3652 -28.8545 -180 1.52568e-005 179.079 -145.601 82.9407 148.06 -1.5033e-006 1.23405e-006 0.879874 -12.1957 62.7263 16.3554 8.136 25.2327 -3.48752 -168.577 78.8484 -9.3127 4.57705e-006 1.05463e-005 -1.30963 107.112 -84.975 104.47 -1.83853e-006 -1.86183e-007 -1.64034 17.4599 66.9716 -18.7253 -8.12928 25.2331 3.48466 
48.4568 48.7689 -5.28276 0.840084 -10.4973 -1.8231 -0.20638 2.70481 -0.175509 -0.395583 9.41683 -0.329451 -0.392831 11.0619 -0.323504 -3.17765 -2.56355 0.139509 1.87225 10.2645 -0.48572 59.3024 -2.9383 -1.80476 131.145 41.8762 -36.9572 -7.95139e-015 -9.54166e-015 -3.18055e-015 22.2967 45.5755 -11.1875 -3.03322e-006 1.30726e-005 -3.00002 8.02891 -4.95138 0.69766 -69.5221 -8.42043 5.44944 -117.732 40.1953 19.4632 -3.10274e-005 1.21442e-006 -2.80331e-006 -14.2907 48.4032 8.0907 9.45986e-006 2.6114e-005 3 -8.02904 -4.95155 -0.697716 -152.009 77.3732 -28.8771 -180 1.52568e-005 179.079 -145.613 82.9391 148.071 -1.5033e-006 1.23405e-006 0.879927 -12.1977 62.7267 16.3562 8.136 25.2327 -3.48752 -168.584 78.8596 -9.30426 4.57705e-006 1.05463e-005 -1.30963 107.13 -84.9727 104.487 -1.83853e-006 -1.86183e-007 -1.64028 17.4668 66.976 -18.7288 -8.12928 25.2331 3.48466 
48.4511 48.781 -5.29821 0.842418 -10.4885 -1.82415 -0.205282 2.70456 -0.175426 -0.393741 9.41741 -0.328535 -0.390995 11.0625 -0.322617 -3.20746 -2.56263 0.132003 1.91549 10.257 -0.499074 59.2644 -2.94838 -1.80836 131.192 41.8654 -36.9643 3.18055e-015 0 -3.18055e-015 22.285 45.576 -11.1834 -3.03322e-006 1.30726e-005 -3.00002 8.02891 -4.95138 0.69766 -69.5263 -8.4177 5.44813 -117.728 40.205 19.4863 -3.10274e-005 1.21442e-006 -2.80331e-006 -14.3082 48.4043 8.10012 9.45986e-006 2.6114e-005 3 -8.02904 -4.95155 -0.697716 -151.987 77.381 -28.8995 -180 1.52568e-005 179.079 -145.626 82.9375 148.083 -1.5033e-006 1.23405e-006 0.879985 -12.1996 62.7271 16.357 8.136 25.2327 -3.48752 -168.591 78.8707 -9.29603 4.57705e-006 1.05463e-005 -1.30963 107.149 -84.9703 104.505 -1.83853e-006 -1.86183e-007 -1.64021 17.4739 66.9805 -18.7323 -8.12928 25.2331 3.48466 
48.4519 48.7787 -5.29579 0.844755 -10.4797 -1.82521 -0.204185 2.70431 -0.175346 -0.391899 9.41799 -0.327625 -0.389158 11.0631 -0.321735 -3.23734 -2.56169 0.124508 1.95881 10.2495 -0.512429 59.2263 -2.95846 -1.81196 131.24 41.8545 -36.9715 -6.36111e-015 0 -9.54166e-015 22.2732 45.5764 -11.1794 -3.03322e-006 1.30726e-005 -3.00002 8.02891 -4.95138 0.69766 -69.5305 -8.41496 5.44682 -117.724 40.2146 19.5093 -3.10274e-005 1.21442e-006 -2.80331e-006 -14.3257 48.4054 8.10955 9.45986e-006 2.6114e-005 3 -8.02904 -4.95155 -0.697716 -151.965 77.3888 -28.9219 -180 1.52568e-005 179.079 -145.638 82.9359 148.095 -1.5033e-006 1.23405e-006 0.880045 -12.2016 62.7275 16.3578 8.136 25.2327 -3.48752 -168.598 78.8818 -9.28786 4.57705e-006 1.05463e-005 -1.30963 107.168 -84.968 104.523 -1.83853e-006 -1.86183e-007 -1.64014 17.4809 66.985 -18.7358 -8.12928 25.2331 3.48466 
48.4581 48.7805 -5.28623 0.847086 -10.4709 -1.82627 -0.203086 2.70407 -0.175259 -0.390058 9.41857 -0.326704 -0.387323 11.0636 -0.320844 -3.26708 -2.5608 0.116992 2.00197 10.242 -0.525779 59.1882 -2.96853 -1.81555 131.288 41.8436 -36.9787 3.02153e-014 9.54166e-015 3.18055e-015 22.2614 45.5769 -11.1754 -3.03322e-006 1.30726e-005 -3.00002 8.02891 -4.95138 0.69766 -69.5347 -8.41224 5.44551 -117.719 40.2244 19.5325 -3.10274e-005 1.21442e-006 -2.80331e-006 -14.3432 48.4065 8.11897 9.45986e-006 2.6114e-005 3 -8.02904 -4.95155 -0.697716 -151.943 77.3966 -28.9444 -180 1.52568e-005 179.079 -145.65 82.9343 148.106 -1.5033e-006 1.23405e-006 0.880102 -12.2036 62.7279 16.3586 8.136 25.2327 -3.48752 -168.606 78.8929 -9.27956 4.57705e-006 1.05463e-005 -1.30963 107.187 -84.9657 104.54 -1.83853e-006 -1.86183e-007 -1.64007 17.4879 66.9895 -18.7393 -8.12928 25.2331 3.48466 
48.4547 48.7844 -5.29432 0.849406 -10.462 -1.82735 -0.201983 2.70383 -0.175155 -0.388222 9.41913 -0.325758 -0.385492 11.0642 -0.319927 -3.29651 -2.56005 0.109423 2.04468 10.2347 -0.539118 59.1501 -2.97856 -1.8191 131.335 41.8327 -36.9858 -3.18055e-015 9.54166e-015 -9.54166e-015 22.2495 45.5778 -11.1715 -3.03322e-006 1.30726e-005 -3.00002 8.02891 -4.95138 0.69766 -69.5388 -8.40954 5.44422 -117.715 40.2342 19.5558 -3.10274e-005 1.21442e-006 -2.80331e-006 -14.3607 48.4076 8.12838 9.45986e-006 2.6114e-005 3 -8.02904 -4.95155 -0.697716 -151.92 77.4045 -28.9672 -180 1.52568e-005 179.079 -145.662 82.9326 148.118 -1.5033e-006 1.23405e-006 0.880152 -12.2055 62.7283 16.3594 8.136 25.2327 -3.48752 -168.613 78.9042 -9.27092 4.57705e-006 1.05463e-005 -1.30963 107.205 -84.9634 104.557 -1.83853e-006 -1.86183e-007 -1.64002 17.4949 66.9939 -18.7427 -8.12928 25.2331 3.48466 
48.4513 48.7818 -5.29104 0.851704 -10.4528 -1.82846 -0.200874 2.70361 -0.175022 -0.386393 9.41967 -0.324774 -0.383669 11.0647 -0.318971 -3.32544 -2.55952 0.101771 2.08671 10.2276 -0.552439 59.1118 -2.98853 -1.82258 131.383 41.8216 -36.9927 7.95139e-015 -3.18055e-015 3.18055e-015 22.2375 45.5791 -11.1676 -3.03322e-006 1.30726e-005 -3.00002 8.02891 -4.95138 0.69766 -69.5426 -8.4069 5.44295 -117.711 40.2443 19.5793 -3.10274e-005 1.21442e-006 -2.80331e-006 -14.3782 48.4085 8.13776 9.45986e-006 2.6114e-005 3 -8.02904 -4.95155 -0.697716 -151.897 77.4127 -28.9906 -180 1.52568e-005 179.079 -145.675 82.931 148.13 -1.5033e-006 1.23405e-006 0.880191 -12.2076 62.7288 16.3602 8.136 25.2327 -3.48752 -168.621 78.9155 -9.26178 4.57705e-006 1.05463e-005 -1.30963 107.222 -84.9611 104.573 -1.83853e-006 -1.86183e-007 -1.63997 17.5017 66.9983 -18.7461 -8.12928 25.2331 3.48466 
